<svg width="512" height="512" viewBox="0 0 512 512" style="color:#ffffff" xmlns="http://www.w3.org/2000/svg" class="h-full w-full"><rect width="512" height="512" x="0" y="0" rx="30" fill="transparent" stroke="transparent" stroke-width="0" stroke-opacity="100%" paint-order="stroke"></rect><svg width="512px" height="512px" viewBox="0 0 24 24" fill="#ffffff" x="0" y="0" role="img" style="display:inline-block;vertical-align:middle" xmlns="http://www.w3.org/2000/svg"><g fill="#ffffff"><path fill="currentColor" d="M4 6H2v14c0 1.1.9 2 2 2h14v-2H4V6zm16-4H8c-1.1 0-2 .9-2 2v12c0 1.1.9 2 2 2h12c1.1 0 2-.9 2-2V4c0-1.1-.9-2-2-2zm0 14H8V4h12v12zm-6.49-5.84c.41-.73 1.18-1.16 1.63-1.8c.48-.68.21-1.94-1.14-1.94c-.88 0-1.32.67-1.5 1.23l-1.37-.57C11.51 5.96 12.52 5 13.99 5c1.23 0 2.08.56 2.51 1.26c.37.6.58 1.73.01 2.57c-.63.93-1.23 1.21-1.56 1.81c-.13.24-.18.4-.18 1.18h-1.52c.01-.41-.06-1.08.26-1.66zm-.56 3.79c0-.59.47-1.04 1.05-1.04c.59 0 1.04.45 1.04 1.04c0 .58-.44 1.05-1.04 1.05c-.58 0-1.05-.47-1.05-1.05z"/></g></svg></svg>